<svg xmlns="http://www.w3.org/2000/svg" xmlns:xlink="http://www.w3.org/1999/xlink" fill="var(--color-foreground-primary, #000)" viewBox="0 0 738.371 157.536">
  <defs>
    <linearGradient id="b">
      <stop offset="0" stop-color="#00f9f9" stop-opacity=".686"/>
      <stop offset=".787" stop-color="#14ffff" stop-opacity="0"/>
    </linearGradient>
    <linearGradient id="c">
      <stop offset="0" stop-color="#54ffff" stop-opacity=".68"/>
      <stop offset="1" stop-color="#0aa" stop-opacity="0"/>
    </linearGradient>
    <linearGradient id="a">
      <stop offset="0" stop-color="#00b6b6" stop-opacity=".367"/>
      <stop offset="1" stop-color="teal" stop-opacity=".964"/>
    </linearGradient>
    <linearGradient xlink:href="#a" id="d" x1="113.173" x2="41.473" y1="54.253" y2="175.097" gradientTransform="translate(1176.507 138.785) scale(.48565)" gradientUnits="userSpaceOnUse"/>
    <radialGradient xlink:href="#b" id="e" cx="68.222" cy="6.54" r="25.748" fx="68.222" fy="6.54" gradientUnits="userSpaceOnUse" spreadMethod="reflect"/>
    <radialGradient xlink:href="#c" id="g" cx="73.64" cy="116.186" r="1.058" fx="73.64" fy="116.186" gradientTransform="matrix(.48565 0 0 35.65495 1176.595 -4002.167)" gradientUnits="userSpaceOnUse"/>
    <filter id="f" width="1.06" height="1.041" x="-.03" y="-.02" color-interpolation-filters="sRGB">
      <feGaussianBlur stdDeviation=".411"/>
    </filter>
  </defs>
  <path fill="url(#d)" d="m1210.952 151.89-26.281 61.158 26.157 25.908-.125-17.19-11.335-11.832 11.335-26.282zm2.695.066.25 31.762 11.333 26.28-11.334 11.834-.124 17.19 26.157-25.91z" transform="translate(-940.77 -102.7)"/>
  <path fill="#0ee" fill-opacity=".357" stroke="url(#e)" stroke-width="2.8" d="M92.715-1.282 71.05 6.554l21.585 8.054-22.133-6.394L83.23 27.417 69.082 9.234l-.99 23.018-.758-23.026-14.33 18.04L65.925 8.19 43.73 14.363l21.665-7.837L43.81-1.528l22.133 6.394-12.728-19.203L67.36 3.846l.99-23.018.758 23.027 14.33-18.04L70.52 4.889Z" filter="url(#f)" paint-order="fill markers stroke" style="mix-blend-mode:overlay" transform="translate(238.562 46.36) scale(.48565)"/>
  <path fill="#009f9f" fill-opacity=".498" d="m271.566 90.96-6.29 14.392 6.417 6.783 6.163-6.535z"/>
  <path fill="url(#g)" d="M1211.845 102.701h1.028v75.443h-1.028z" paint-order="fill markers stroke" style="mix-blend-mode:overlay" transform="translate(-940.77 -102.7)"/>
  <path d="M302.999 128.09q0 41.509-22.704 62.607-22.475 20.87-62.838 20.87H171.82V47.823h50.453q24.768 0 42.886 9.173 18.117 9.174 27.978 27.062Q303 101.716 303 128.09zm-21.787.688q0-32.795-16.283-47.931-16.053-15.365-45.637-15.365H192.46v128.426h22.245q66.507 0 66.507-65.13zM383.036 86.58q22.474 0 33.253 9.862 10.779 9.86 10.779 31.418v83.707H412.39l-3.898-17.43h-.918q-8.026 10.091-16.97 14.907-8.715 4.816-24.31 4.816-16.74 0-27.749-8.715-11.008-8.944-11.008-27.749 0-18.347 14.448-28.208 14.448-10.09 44.49-11.008l20.87-.688v-7.338q0-15.366-6.65-21.328-6.651-5.963-18.806-5.963-9.632 0-18.346 2.981-8.715 2.752-16.283 6.422l-6.192-15.136q8.027-4.358 19.035-7.34 11.008-3.21 22.933-3.21zm5.962 65.59q-22.933.917-31.877 7.338-8.714 6.421-8.714 18.117 0 10.32 6.192 15.136 6.42 4.816 16.282 4.816 15.595 0 25.915-8.485 10.32-8.715 10.32-26.603v-11.007Zm117.19 45.178q4.586 0 9.402-.688 4.816-.917 7.798-1.835v15.366q-3.21 1.605-9.174 2.522-5.962 1.147-11.466 1.147-9.632 0-17.888-3.21-8.027-3.44-13.072-11.697-5.045-8.256-5.045-23.162v-71.552h-17.43v-9.632l17.659-8.027 8.027-26.144h11.925v28.208h35.546v15.595h-35.546v71.093q0 11.237 5.275 16.741 5.503 5.275 13.989 5.275zM594.48 86.58q22.475 0 33.253 9.862 10.779 9.86 10.779 31.418v83.707h-14.677l-3.899-17.43h-.917q-8.027 10.091-16.971 14.907-8.715 4.816-24.31 4.816-16.74 0-27.749-8.715-11.008-8.944-11.008-27.749 0-18.347 14.448-28.208 14.448-10.09 44.491-11.008l20.87-.688v-7.338q0-15.366-6.651-21.328-6.651-5.963-18.806-5.963-9.632 0-18.346 2.981-8.715 2.752-16.283 6.422l-6.192-15.136q8.027-4.358 19.035-7.34 11.008-3.21 22.933-3.21zm5.963 65.59q-22.934.917-31.878 7.338-8.714 6.421-8.714 18.117 0 10.32 6.192 15.136 6.421 4.816 16.282 4.816 15.595 0 25.915-8.485 10.32-8.715 10.32-26.603v-11.007Z" aria-label="Data" font-family="Noto Sans" font-size="229.333" style="line-height:1.25;-inkscape-font-specification:'Noto Sans, Normal';text-align:center;white-space:pre" transform="translate(-83.444 28.104) scale(.48565)"/>
  <path d="M474.185 47.823q30.501 0 44.95 11.696 14.676 11.467 14.676 34.859 0 13.072-4.816 21.786-4.816 8.715-12.384 13.99-7.338 5.045-15.594 8.026l44.949 73.387h-24.08l-39.675-67.653h-32.565v67.653h-20.64V47.823Zm-1.147 17.888h-23.392v60.773h24.539q19.952 0 29.125-7.797 9.173-8.027 9.173-23.392 0-16.053-9.632-22.704-9.632-6.88-29.813-6.88zm143.333 20.64q15.824 0 27.062 6.88 11.466 6.88 17.429 19.493 6.192 12.384 6.192 29.126v12.154h-84.165q.458 20.87 10.549 31.877 10.32 10.78 28.667 10.78 11.696 0 20.64-2.065 9.173-2.293 18.805-6.421v17.658q-9.403 4.128-18.576 5.963-9.173 2.064-21.787 2.064-17.43 0-30.96-7.11-13.301-7.109-20.87-21.098-7.338-14.219-7.338-34.63 0-20.18 6.65-34.628 6.88-14.448 19.036-22.246 12.384-7.797 28.666-7.797zm-.23 16.512q-14.447 0-22.932 9.403-8.256 9.173-9.862 25.685h62.608q-.23-15.595-7.338-25.227-7.11-9.861-22.475-9.861zm141.27-16.512q22.016 0 33.253 10.779 11.237 10.549 11.237 34.4v80.037H781.95v-78.661q0-29.584-27.52-29.584-20.41 0-28.207 11.466-7.798 11.467-7.798 33.024v63.755h-20.181V88.644h16.283l2.98 16.742h1.148q5.962-9.632 16.512-14.22 10.549-4.815 22.245-4.815zm123.61 110.997q4.587 0 9.403-.688 4.816-.917 7.797-1.835v15.366q-3.21 1.605-9.173 2.522-5.963 1.147-11.467 1.147-9.632 0-17.888-3.21-8.026-3.44-13.072-11.697-5.045-8.256-5.045-23.162v-71.552h-17.43v-9.632l17.66-8.027 8.026-26.144h11.925v28.208h35.547v15.595h-35.547v71.093q0 11.237 5.275 16.741 5.504 5.275 13.99 5.275zm85.312-110.997q12.155 0 21.787 4.587 9.861 4.586 16.741 13.989h1.147l2.752-16.283h16.053v124.987q0 26.373-13.53 39.674-13.302 13.302-41.51 13.302-27.061 0-44.261-7.798v-18.576q18.117 9.632 45.408 9.632 15.824 0 24.768-9.402 9.173-9.174 9.173-25.227v-4.816q0-2.752.23-7.797.229-5.275.458-7.339h-.917q-12.384 18.576-38.07 18.576-23.85 0-37.38-16.741-13.302-16.742-13.302-46.784 0-29.355 13.301-46.555 13.53-17.43 37.152-17.43zm2.752 16.97q-15.365 0-23.85 12.385-8.486 12.154-8.486 34.858 0 22.704 8.256 34.859 8.486 11.925 24.539 11.925 18.576 0 27.061-9.861 8.485-10.09 8.485-32.336v-4.816q0-25.227-8.714-36.005-8.715-11.008-27.29-11.008zm142.187-16.97q15.824 0 27.06 6.88 11.468 6.88 17.43 19.493 6.192 12.384 6.192 29.126v12.154h-84.165q.459 20.87 10.55 31.877 10.32 10.78 28.666 10.78 11.696 0 20.64-2.065 9.173-2.293 18.805-6.421v17.658q-9.402 4.128-18.576 5.963-9.173 2.064-21.786 2.064-17.43 0-30.96-7.11-13.302-7.109-20.87-21.098-7.338-14.219-7.338-34.63 0-20.18 6.65-34.628 6.88-14.448 19.035-22.246 12.384-7.797 28.667-7.797zm-.23 16.512q-14.448 0-22.933 9.403-8.256 9.173-9.861 25.685h62.608q-.23-15.595-7.34-25.227-7.108-9.861-22.474-9.861zm141.27-16.512q22.015 0 33.252 10.779 11.238 10.549 11.238 34.4v80.037h-19.952v-78.661q0-29.584-27.52-29.584-20.41 0-28.208 11.466-7.797 11.467-7.797 33.024v63.755h-20.182V88.644h16.283l2.981 16.742h1.147q5.963-9.632 16.512-14.22 10.55-4.815 22.245-4.815z" aria-label="Rentgen" font-family="Noto Sans" font-size="229.333" style="line-height:1.25;-inkscape-font-specification:'Noto Sans, Normal';text-align:center;white-space:pre" transform="translate(108.58 28.058) scale(.48565)"/>
</svg>
