<svg xmlns="http://www.w3.org/2000/svg" xmlns:xlink="http://www.w3.org/1999/xlink" fill="var(--color-foreground-primary, #000)" viewBox="0 0 512 512">
  <defs>
    <linearGradient id="b">
      <stop offset="0" stop-color="#00f9f9" stop-opacity=".686"/>
      <stop offset=".787" stop-color="#14ffff" stop-opacity="0"/>
    </linearGradient>
    <linearGradient id="c">
      <stop offset="0" stop-color="#54ffff" stop-opacity=".68"/>
      <stop offset="1" stop-color="#0aa" stop-opacity="0"/>
    </linearGradient>
    <linearGradient id="a">
      <stop offset="0" stop-color="#00b6b6" stop-opacity=".367"/>
      <stop offset="1" stop-color="teal" stop-opacity=".964"/>
    </linearGradient>
    <linearGradient xlink:href="#a" id="d" x1="113.173" x2="41.473" y1="54.253" y2="175.097" gradientTransform="translate(1263.005 190.107) scale(1.5906)" gradientUnits="userSpaceOnUse"/>
    <radialGradient xlink:href="#b" id="e" cx="68.222" cy="6.54" r="25.748" fx="68.222" fy="6.54" gradientUnits="userSpaceOnUse" spreadMethod="reflect"/>
    <radialGradient xlink:href="#c" id="g" cx="73.64" cy="116.186" r="1.058" fx="73.64" fy="116.186" gradientTransform="matrix(1.5906 0 0 101.0067 1263.293 -11523.361)" gradientUnits="userSpaceOnUse"/>
    <filter id="f" width="1.06" height="1.041" x="-.03" y="-.02" color-interpolation-filters="sRGB">
      <feGaussianBlur stdDeviation=".411"/>
    </filter>
  </defs>
  <path fill="url(#d)" d="m1375.818 233.031-86.075 200.301 85.669 84.855-.41-56.299-37.124-38.752 37.125-86.079zm8.827.214.816 104.026 37.122 86.076-37.122 38.755-.404 56.299 85.669-84.855z" transform="translate(-1124.242 -105.293)"/>
  <path fill="#0ee" fill-opacity=".357" stroke="url(#e)" stroke-width="2.8" d="M92.715-1.282 71.05 6.554l21.585 8.054-22.133-6.394L83.23 27.417 69.082 9.234l-.99 23.018-.758-23.026-14.33 18.04L65.925 8.19 43.73 14.363l21.665-7.837L43.81-1.528l22.133 6.394-12.728-19.203L67.36 3.846l.99-23.018.758 23.027 14.33-18.04L70.52 4.889Z" filter="url(#f)" paint-order="fill markers stroke" style="mix-blend-mode:overlay" transform="translate(148.012 118.467) scale(1.5906)"/>
  <path fill="#009f9f" fill-opacity=".498" d="m256.108 264.544-20.601 47.137 21.018 22.214 20.184-21.402z"/>
  <path fill="url(#g)" d="M1378.743 105.293h3.366v213.721h-3.366z" paint-order="fill markers stroke" style="mix-blend-mode:overlay" transform="translate(-1124.242 -105.293)"/>
  <path d="M768.969 35.873q0 10.933-5.98 16.49-5.92 5.496-16.55 5.496h-12.02V14.733h13.289q6.523 0 11.295 2.416 4.771 2.416 7.368 7.127 2.598 4.651 2.598 11.597zm-5.738.181q0-8.637-4.289-12.623-4.228-4.047-12.02-4.047h-7.066v33.824h5.859q17.516 0 17.516-17.154zm26.817-11.113q5.92 0 8.758 2.597 2.839 2.597 2.839 8.275v22.046h-3.866l-1.026-4.59h-.242q-2.114 2.657-4.47 3.925-2.295 1.269-6.402 1.269-4.41 0-7.308-2.295-2.9-2.356-2.9-7.309 0-4.832 3.806-7.429 3.805-2.658 11.717-2.9l5.497-.18v-1.933q0-4.047-1.752-5.617-1.752-1.57-4.953-1.57-2.537 0-4.832.784-2.295.725-4.288 1.692l-1.631-3.987q2.114-1.147 5.013-1.933 2.9-.845 6.04-.845zm1.57 17.274q-6.04.242-8.395 1.933-2.295 1.691-2.295 4.772 0 2.718 1.63 3.986 1.692 1.268 4.289 1.268 4.107 0 6.825-2.234 2.718-2.296 2.718-7.007v-2.899zm30.865 11.899q1.208 0 2.476-.181 1.269-.242 2.054-.483v4.046q-.846.423-2.416.665-1.57.302-3.02.302-2.537 0-4.711-.846-2.114-.906-3.443-3.08-1.329-2.175-1.329-6.1V29.591h-4.59v-2.537l4.65-2.114 2.115-6.886h3.14v7.43h9.362v4.107h-9.362v18.724q0 2.96 1.39 4.409 1.45 1.389 3.684 1.389zm23.254-29.173q5.92 0 8.758 2.597 2.839 2.597 2.839 8.275v22.046h-3.866l-1.026-4.59h-.242q-2.114 2.657-4.47 3.925-2.295 1.269-6.402 1.269-4.41 0-7.308-2.295-2.9-2.356-2.9-7.309 0-4.832 3.806-7.429 3.805-2.658 11.717-2.9l5.496-.18v-1.933q0-4.047-1.751-5.617-1.752-1.57-4.953-1.57-2.537 0-4.832.784-2.295.725-4.288 1.692l-1.631-3.987q2.114-1.147 5.013-1.933 2.9-.845 6.04-.845zm1.57 17.274q-6.04.242-8.395 1.933-2.295 1.691-2.295 4.772 0 2.718 1.63 3.986 1.692 1.268 4.289 1.268 4.107 0 6.825-2.234 2.718-2.296 2.718-7.007v-2.899zm19.268 12.382q0-2.235 1.087-3.14 1.088-.907 2.598-.907 1.57 0 2.657.906 1.148.906 1.148 3.141 0 2.175-1.148 3.141-1.087.966-2.657.966-1.51 0-2.598-.966-1.087-.966-1.087-3.14zm29.596-39.864q8.033 0 11.839 3.08 3.865 3.02 3.865 9.181 0 3.443-1.268 5.738-1.269 2.296-3.262 3.685-1.933 1.329-4.107 2.114l11.838 19.328h-6.342L898.285 40.04h-8.577v17.818h-5.436V14.733Zm-.302 4.711h-6.16V35.45h6.462q5.255 0 7.67-2.053 2.417-2.114 2.417-6.161 0-4.228-2.537-5.98-2.537-1.812-7.852-1.812zm37.75 5.436q4.168 0 7.127 1.812 3.02 1.812 4.59 5.134 1.632 3.262 1.632 7.671v3.201H924.8q.12 5.497 2.778 8.396 2.718 2.839 7.55 2.839 3.08 0 5.436-.544 2.416-.604 4.953-1.691v4.65q-2.476 1.088-4.892 1.571-2.416.544-5.738.544-4.59 0-8.154-1.873-3.504-1.872-5.497-5.556-1.933-3.745-1.933-9.12 0-5.316 1.752-9.121 1.812-3.805 5.013-5.859 3.262-2.054 7.55-2.054zm-.06 4.35q-3.805 0-6.04 2.476-2.175 2.416-2.597 6.764h16.489q-.06-4.107-1.933-6.644-1.872-2.597-5.92-2.597zm37.206-4.35q5.798 0 8.758 2.84 2.96 2.778 2.96 9.06v21.079h-5.255V37.142q0-7.792-7.248-7.792-5.376 0-7.43 3.02-2.053 3.02-2.053 8.698v16.79h-5.315V25.485h4.288l.785 4.41h.302q1.57-2.537 4.35-3.745 2.778-1.269 5.858-1.269zm32.556 29.234q1.208 0 2.476-.181 1.269-.242 2.054-.483v4.046q-.846.423-2.416.665-1.57.302-3.02.302-2.537 0-4.712-.846-2.114-.906-3.442-3.08-1.33-2.175-1.33-6.1V29.591h-4.59v-2.537l4.651-2.114 2.114-6.886h3.141v7.43h9.362v4.107h-9.362v18.724q0 2.96 1.39 4.409 1.449 1.389 3.684 1.389zm22.469-29.234q3.2 0 5.738 1.208 2.597 1.208 4.409 3.685h.302l.725-4.289h4.228v32.918q0 6.946-3.564 10.45-3.503 3.503-10.932 3.503-7.128 0-11.658-2.054V65.41q4.772 2.537 11.96 2.537 4.167 0 6.523-2.477 2.416-2.416 2.416-6.644v-1.268q0-.725.06-2.054.06-1.389.12-1.933h-.241q-3.262 4.893-10.026 4.893-6.282 0-9.846-4.41-3.503-4.409-3.503-12.321 0-7.731 3.503-12.261 3.564-4.59 9.785-4.59zm.724 4.47q-4.046 0-6.281 3.262-2.235 3.2-2.235 9.18 0 5.98 2.174 9.181 2.235 3.141 6.463 3.141 4.892 0 7.127-2.597 2.235-2.658 2.235-8.517v-1.268q0-6.644-2.295-9.483-2.295-2.899-7.188-2.899zm37.448-4.47q4.168 0 7.128 1.812 3.02 1.812 4.59 5.134 1.63 3.262 1.63 7.671v3.201h-22.166q.12 5.497 2.778 8.396 2.718 2.839 7.55 2.839 3.08 0 5.436-.544 2.416-.604 4.953-1.691v4.65q-2.476 1.088-4.892 1.571-2.416.544-5.738.544-4.59 0-8.154-1.873-3.504-1.872-5.497-5.556-1.933-3.745-1.933-9.12 0-5.316 1.752-9.121 1.812-3.805 5.013-5.859 3.262-2.054 7.55-2.054zm-.06 4.35q-3.805 0-6.04 2.476-2.174 2.416-2.597 6.764h16.49q-.06-4.107-1.933-6.644-1.873-2.597-5.92-2.597zm37.207-4.35q5.798 0 8.758 2.84 2.96 2.778 2.96 9.06v21.079h-5.256V37.142q0-7.792-7.248-7.792-5.375 0-7.429 3.02-2.053 3.02-2.053 8.698v16.79h-5.316V25.485h4.289l.785 4.41h.302q1.57-2.537 4.349-3.745 2.778-1.269 5.859-1.269z" aria-label="Data.Rentgen" font-family="Noto Sans" font-size="60.4" style="line-height:1.25;-inkscape-font-specification:'Noto Sans';text-align:center;white-space:pre" transform="matrix(1.34016 0 0 1.35304 -984.242 411.022)"/>
</svg>
