<svg xmlns="http://www.w3.org/2000/svg" xmlns:xlink="http://www.w3.org/1999/xlink" fill="var(--color-foreground-primary, #f0f6fc)" viewBox="0 0 512 512">
  <defs>
    <linearGradient id="b">
      <stop offset="0" stop-color="#00f9f9" stop-opacity=".686"/>
      <stop offset=".787" stop-color="#14ffff" stop-opacity="0"/>
    </linearGradient>
    <linearGradient id="c">
      <stop offset="0" stop-color="#54ffff" stop-opacity=".68"/>
      <stop offset="1" stop-color="#0aa" stop-opacity="0"/>
    </linearGradient>
    <linearGradient id="a">
      <stop offset="0" stop-color="#00b6b6" stop-opacity=".367"/>
      <stop offset="1" stop-color="teal" stop-opacity=".964"/>
    </linearGradient>
    <linearGradient xlink:href="#a" id="d" x1="113.173" x2="41.473" y1="54.253" y2="175.097" gradientTransform="translate(1263.005 190.107) scale(1.5906)" gradientUnits="userSpaceOnUse"/>
    <radialGradient xlink:href="#b" id="e" cx="68.222" cy="6.54" r="25.748" fx="68.222" fy="6.54" gradientUnits="userSpaceOnUse" spreadMethod="reflect"/>
    <radialGradient xlink:href="#c" id="g" cx="73.64" cy="116.186" r="1.058" fx="73.64" fy="116.186" gradientTransform="matrix(1.5906 0 0 101.0067 1263.293 -11523.361)" gradientUnits="userSpaceOnUse"/>
    <filter id="f" width="1.06" height="1.041" x="-.03" y="-.02" color-interpolation-filters="sRGB">
      <feGaussianBlur stdDeviation=".411"/>
    </filter>
    <path id="h" d="M145.083 2.902h1556.114v276.001H145.083z"/>
  </defs>
  <path fill="url(#d)" d="m1375.818 233.031-86.075 200.301 85.669 84.855-.41-56.299-37.124-38.752 37.125-86.079zm8.827.214.816 104.026 37.122 86.076-37.122 38.755-.404 56.299 85.669-84.855z" transform="translate(-1124.242 -105.293)"/>
  <path fill="#0ee" fill-opacity=".357" stroke="url(#e)" stroke-width="2.8" d="M92.715-1.282 71.05 6.554l21.585 8.054-22.133-6.394L83.23 27.417 69.082 9.234l-.99 23.018-.758-23.026-14.33 18.04L65.925 8.19 43.73 14.363l21.665-7.837L43.81-1.528l22.133 6.394-12.728-19.203L67.36 3.846l.99-23.018.758 23.027 14.33-18.04L70.52 4.889Z" filter="url(#f)" paint-order="fill markers stroke" style="mix-blend-mode:overlay" transform="translate(148.012 118.467) scale(1.5906)"/>
  <path fill="#009f9f" fill-opacity=".498" d="m256.108 264.544-20.601 47.137 21.018 22.214 20.184-21.402z"/>
  <path fill="url(#g)" d="M1378.743 105.293h3.366v213.721h-3.366z" paint-order="fill markers stroke" style="mix-blend-mode:overlay" transform="translate(-1124.242 -105.293)"/>
  <text xml:space="preserve" font-family="Droid Sans" font-size="60.4" font-weight="400" style="line-height:1.25;-inkscape-font-specification:'Droid Sans';text-align:center;white-space:pre;shape-inside:url(#h)" transform="matrix(1.34016 0 0 1.35304 -984.242 411.022)"><tspan x="728.561" y="57.859"><tspan font-family="Noto Sans" style="-inkscape-font-specification:'Noto Sans'">Data.Rentgen</tspan></tspan></text>
</svg>
